<?xml version="1.0" encoding="utf-8"?>
<!-- Generator: Adobe Illustrator 23.0.0, SVG Export Plug-In . SVG Version: 6.00 Build 0)  -->
<svg version="1.1" id="Livello_1" xmlns="http://www.w3.org/2000/svg" xmlns:xlink="http://www.w3.org/1999/xlink" x="0px" y="0px"
	 viewBox="0 0 500 500" style="enable-background:new 0 0 500 500;" xml:space="preserve">
<style type="text/css">
	.st0{fill:#FFFFFF;}
</style>
<g>
	<g>
		<path class="st0" d="M303.3,118.2H202.2c-44.8,0-81.2,36.3-81.2,81.2v101.1c0,44.8,36.3,81.1,81.2,81.1h101.1
			c44.8,0,81.2-36.3,81.2-81.1V199.3C384.5,154.5,348.1,118.2,303.3,118.2z M359.2,290.7c0,36.2-29.4,65.6-65.6,65.6h-81.7
			c-36.2,0-65.6-29.4-65.6-65.6V209c0-36.2,29.4-65.6,65.6-65.6h81.7c36.2,0,65.6,29.4,65.6,65.6L359.2,290.7L359.2,290.7z"/>
		<path class="st0" d="M256.3,180.9c-38.3,0-69.4,31.1-69.4,69.4c0,38.3,31.1,69.4,69.4,69.4c38.3,0,69.4-31.1,69.4-69.4
			C325.7,212,294.6,180.9,256.3,180.9z M256.3,292.1c-23.1,0-41.8-18.7-41.8-41.7c0-23.1,18.7-41.8,41.8-41.8
			c23,0,41.7,18.7,41.7,41.8C298,273.4,279.3,292.1,256.3,292.1z"/>
		<path class="st0" d="M320.9,162.2c-9.7,0-17.6,7.9-17.6,17.6c0,9.7,7.9,17.6,17.6,17.6c9.7,0,17.6-7.9,17.6-17.6
			C338.5,170.1,330.6,162.2,320.9,162.2z"/>
	</g>
	<g>
		<path class="st0" d="M422.6,404.5c-6.8,2-10.6,9.7-13.9,15.5c-3,5.4-8.6,11.6-8.6,17.9c0,2,2.1,3.6,4.1,3.1c6-1.7,10.6-8.8,15-13
			c4.8-4.7,11.3-10.4,11.4-17.5C430.6,406.5,426.5,403.4,422.6,404.5z"/>
		<path class="st0" d="M495.8,267.4C525.5,147.6,401.8,26.6,289.2,5.3C227.3-6.5,163,4.7,110.2,39C64.9,68.5,18.5,121,12.8,176.4
			c-0.1,1.2,0.2,2.2,0.8,3.1c-35.7,91.6,3.2,206.8,81.5,264.9c77.6,57.6,205.2,77.8,287.8,17.6c7-5.1,1.1-15.2-6.8-11.5
			c-3,1.4-6,2.8-9,4.1c-1.5-2.6-4.6-4.3-8.5-2.4c-55,26.1-131.3,12.9-185.6-6.5c-6.1-2.2-10.4,7.6-4.5,10.5
			c28.9,14,60.4,22.3,92.6,24c13.5,0.7,27,0.2,40.4-1.2c-20.5,5.1-41.7,7.5-64.4,5.5c-46.3-4.2-87.2-21.4-125.4-47
			c-44.8-30-75.4-66.5-89.9-118.7c-12.6-45.3-13.2-92.9,0.7-137.7c0.6-0.4,1.1-1,1.5-1.7c2.4-4.6,4.8-9.1,7.1-13.5
			c-13.7,35.4-17.8,74.7-11.6,112.2c11.7,71.1,51.7,118.1,110.7,156.6c7.1,4.6,14.2-7.3,6.6-11.3c-52.4-27.7-93.9-90.9-102.7-148.5
			c-9.7-63.7,13.5-123.5,51.4-174.2c3.2-4.3-3.6-9.1-7.3-5.6c-6.2,5.8-12,12.1-17.3,18.7c8.7-13,18.4-25.3,30.1-36.7
			c-2.7,4.5,1.6,11.3,7,7.8c13.8-8.8,27.1-18.2,41.4-26.3c10.2-5.7,21-10.3,31.5-15.6c1.7,0.5,3.6,0.6,5.9,0.1
			c75.8-19.3,151.3-11,210.4,44.5c2.3,2.2,5.1,1.2,6.5-0.8c-0.5,2.8,1,6,4.6,6c6.4,0,6.4-9.8,0-9.8c-1.8,0-3,0.8-3.8,1.9
			c0.1-1.1-0.2-2.3-1.2-3.4c-19.7-20.8-44.6-38.2-71.9-50.3c79.9,29.3,146.4,100.8,155.9,183.4c-6-26.4-17-51.9-33.1-74.9
			c-4.1-5.8-13.2-0.8-9.7,5.6c21.5,39.3,31.6,82.3,33,126.8c1.5,46.5-16.6,86.1-41.3,124.5c-2.5,3.9,3.3,8.7,6.5,5.5
			c1.5,0.8,3.4,0.8,4.9-0.7C473.4,368,499.5,318,496,268.1C496,267.8,495.9,267.6,495.8,267.4z"/>
		<path class="st0" d="M149,440.6c-1.6,3.7,0.5,7.3,4.2,8.6c2.7,0.9,5.1,1.8,7.9,2.2c4.8,0.6,6.6-6,3.8-9c-1.9-2-4.4-3.4-6.7-4.9
			C154.9,435.5,150.4,437.4,149,440.6z"/>
	</g>
</g>
</svg>
