<?xml version="1.0" encoding="utf-8"?>
<!-- Generator: Adobe Illustrator 23.0.0, SVG Export Plug-In . SVG Version: 6.00 Build 0)  -->
<svg version="1.1" id="Livello_1" xmlns="http://www.w3.org/2000/svg" xmlns:xlink="http://www.w3.org/1999/xlink" x="0px" y="0px"
	 viewBox="0 0 500 500" style="enable-background:new 0 0 500 500;" xml:space="preserve">
<style type="text/css">
	.st0{fill:#FFFFFF;}
</style>
<g>
	<path class="st0" d="M368.6,151.6c-9.9,5.9-21,10.2-32.7,12.5c-9.4-10-22.7-16.3-37.5-16.3c-28.4,0-51.4,23-51.4,51.4
		c0,4,0.5,7.9,1.3,11.7c-42.7-2.2-80.7-22.6-106-53.7c-4.4,7.6-7,16.4-7,25.8c0,17.8,9.1,33.6,22.9,42.8c-8.4-0.3-16.4-2.6-23.3-6.4
		c0,0.2,0,0.4,0,0.7c0,24.9,17.7,45.7,41.2,50.4c-4.3,1.2-8.8,1.8-13.5,1.8c-3.3,0-6.5-0.3-9.7-0.9c6.6,20.5,25.5,35.3,48,35.7
		c-17.6,13.8-39.8,22-63.9,22c-4.1,0-8.2-0.2-12.3-0.7c22.8,14.6,49.8,23.1,78.8,23.1c94.6,0,146.3-78.4,146.3-146.4
		c0-2.2,0-4.4-0.2-6.6c10.1-7.3,18.8-16.3,25.7-26.6c-9.2,4.1-19.1,6.8-29.5,8.1C356.6,173.7,364.7,163.6,368.6,151.6z"/>
	<g>
		<path class="st0" d="M421.8,403.2c-6.8,2-10.6,9.6-13.8,15.5c-2.9,5.3-8.6,11.6-8.6,17.8c0,2,2.1,3.6,4.1,3.1
			c6-1.7,10.6-8.8,14.9-13c4.8-4.7,11.3-10.4,11.4-17.4C429.8,405.2,425.7,402,421.8,403.2z"/>
		<path class="st0" d="M494.8,266.5C524.3,147.2,401.1,26.6,288.9,5.3C227.3-6.3,163.1,4.8,110.6,39c-45.2,29.4-91.3,81.6-97,136.9
			c-0.1,1.2,0.2,2.2,0.8,3.1c-35.6,91.3,3.2,206,81.2,263.9c77.4,57.4,204.5,77.6,286.7,17.6c6.9-5.1,1.1-15.2-6.8-11.5
			c-3,1.4-6,2.8-8.9,4.1c-1.5-2.6-4.6-4.3-8.5-2.4c-54.8,26-130.8,12.8-184.9-6.5c-6.1-2.2-10.3,7.6-4.4,10.4
			c28.8,14,60.2,22.2,92.3,23.9c13.4,0.7,26.9,0.2,40.2-1.2c-20.4,5.1-41.5,7.5-64.2,5.4c-46.1-4.2-86.8-21.3-125-46.8
			c-44.7-29.8-75.2-66.2-89.6-118.2c-12.5-45.1-13.2-92.6,0.7-137.2c0.6-0.4,1.1-1,1.5-1.7c2.4-4.6,4.8-9,7.1-13.5
			C18,200.7,14,239.8,20.1,277.2C31.8,348,71.7,394.8,130.4,433.3c7,4.6,14.1-7.2,6.6-11.2c-52.2-27.6-93.5-90.5-102.3-148
			C25.1,210.5,48.2,151,86,100.4c3.2-4.3-3.6-9-7.3-5.6c-6.2,5.8-11.9,12-17.2,18.6c8.7-13,18.3-25.2,30-36.6
			c-2.6,4.5,1.6,11.2,7,7.8c13.7-8.8,27-18.2,41.2-26.2c10.1-5.7,21-10.3,31.4-15.5c1.7,0.5,3.6,0.6,5.9,0.1
			c75.6-19.2,150.8-10.9,209.7,44.3c2.3,2.1,5.1,1.2,6.5-0.8c-0.5,2.8,1,6,4.6,6c6.4,0,6.4-9.8,0-9.8c-1.8,0-3,0.8-3.8,1.9
			c0.1-1.1-0.2-2.3-1.2-3.4c-19.7-20.7-44.4-38-71.7-50.2c79.6,29.2,145.8,100.4,155.4,182.7c-5.9-26.3-16.9-51.7-33-74.7
			c-4.1-5.8-13.2-0.8-9.7,5.6c21.4,39.1,31.5,82,32.9,126.3c1.5,46.3-16.5,85.8-41.1,124c-2.5,3.9,3.3,8.6,6.5,5.4
			c1.5,0.8,3.3,0.8,4.9-0.7c35.6-33.1,61.6-82.9,58.1-132.6C494.9,267,494.8,266.8,494.8,266.5z"/>
		<path class="st0" d="M149.2,439.2c-1.6,3.6,0.5,7.3,4.2,8.5c2.7,0.9,5.1,1.8,7.9,2.2c4.8,0.6,6.6-6,3.7-8.9
			c-1.9-2-4.4-3.3-6.7-4.8C155.1,434,150.6,435.9,149.2,439.2z"/>
	</g>
</g>
</svg>
